<?xml version="1.0" standalone="no"?><!DOCTYPE svg PUBLIC "-//W3C//DTD SVG 1.1//EN" "http://www.w3.org/Graphics/SVG/1.1/DTD/svg11.dtd"><svg t="1591198604276" class="icon" viewBox="0 0 1024 1024" version="1.1" xmlns="http://www.w3.org/2000/svg" p-id="12835" xmlns:xlink="http://www.w3.org/1999/xlink" width="200" height="200"><defs><style type="text/css"></style></defs><path d="M480.512 508.544c-1.728 15.616 12.16 33.152 27.904 34.88s33.152-12.224 34.944-27.84c1.792-15.616-12.16-33.152-27.84-34.944-15.744-1.792-33.152 12.224-35.008 27.904z" p-id="12836"></path><path d="M598.4 521.664a87.744 87.744 0 0 1-96.192 76.8A87.68 87.68 0 0 1 425.6 502.336a87.68 87.68 0 0 1 96-76.672l20.864 2.368 131.136-131.072c-42.752-27.136-86.4-46.72-131.712-51.84a266.432 266.432 0 0 0-296.896 236.928c-16.704 149.12 79.936 279.232 229.184 296a266.496 266.496 0 0 0 296.96-236.864c7.744-69.632-14.976-142.592-55.552-194.88L590.848 470.976c7.04 15.296 9.472 33.152 7.552 50.688z" p-id="12837"></path><path d="M564.864 40.96C305.792 11.904 70.016 200.064 40.96 459.136c-29.12 259.136 159.04 494.912 418.176 523.904 259.008 29.12 494.784-159.104 524.032-418.112 28.864-259.072-159.296-494.848-418.304-523.968z m234.176 221.824l-39.808 39.808c54.976 69.632 85.12 151.936 74.496 245.568-20.096 180.48-177.344 305.984-357.952 285.632-180.544-20.096-305.984-177.344-285.696-357.888 20.288-180.544 177.408-305.984 357.888-285.696 59.008 6.656 116.352 27.264 164.992 67.392l41.216-41.216a32.32 32.32 0 1 1 44.864 46.4z" p-id="12838"></path></svg>